<svg xmlns="http://www.w3.org/2000/svg" width="182" height="32" fill="none"><path fill="#fff" d="M0 31.0844V1.01556h7.75108v3.43008C9.48839 1.41648 12.8739-.320832 16.3485.169179 19.645.391911 22.585 2.35196 24.0996 5.33657 27.5297 1.90649 30.1134.169179 33.5435.169179c6.8601 0 11.1811 3.430081 11.1811 11.181121v19.7341h-8.5974V14.7358c0-4.2764-.8464-6.01372-4.2765-6.01372-3.4301 0-5.1674 1.73732-5.1674 6.01372v16.3486h-9.4884V14.7358c0-4.2764-.8464-6.01372-3.4301-6.01372-2.5836 0-5.16734 1.73732-5.16734 6.01372v16.3486H0ZM55.0148 4.44564c6.5484-6.19195 16.8831-5.88014 23.0751.71273C80.7627 8.00934 82.3218 11.7067 82.5 15.6268c.1336 4.1428-1.4255 8.1965-4.2765 11.1811-3.0291 3.4301-7.4392 5.3011-12.0275 5.1674-4.321 0-8.3747-1.8709-11.1812-5.1674-2.8955-2.9846-4.4101-7.0383-4.2764-11.1811-.1337-4.1428 1.3809-8.15201 4.2764-11.18116ZM66.196 23.3779c4.2764 0 7.7511-3.4747 7.7511-7.7511 0-4.0537-3.2519-7.30563-7.3056-7.30563-4.0538 0-7.3057 3.25193-7.3057 7.30563-.0445 3.9646 2.8956 7.3056 6.8602 7.7511Zm22.3177 7.7065V1.01556h8.5975v3.43008C98.8485 1.86195 101.388.169179 105.709.169179c6.013 0 10.334 4.276461 10.334 11.181121v19.7341h-8.597V14.7358c0-4.2764-.846-6.01372-4.276-6.01372-3.4306 0-6.0143 1.73732-6.0143 6.01372v16.3486h-8.642ZM153.863 4.44564c6.549-6.19195 16.883-5.88014 23.075.71273 2.673 2.85097 4.232 6.54833 4.41 10.46843.134 4.1428-1.425 8.1965-4.276 11.1811-2.851 3.2074-6.905 5.0783-11.181 5.1674-4.588.2673-9.043-1.6482-12.028-5.1674-2.895-2.9846-4.41-7.0383-4.276-11.1811-.178-4.1428 1.381-8.15201 4.276-11.18116Zm12.028 18.93226c3.92-.4455 6.905-3.7865 6.86-7.7511 0-4.0537-3.252-7.30563-7.306-7.30563-4.053 0-7.305 3.25193-7.305 7.30563 0 4.2764 3.474 7.7511 7.751 7.7511Zm-42.987 7.7065v-6.0138l12.027-16.34852h-12.027V.971009h22.362V7.92025L134.085 23.3779h11.181v7.7065h-22.362Z"/></svg>