<svg xmlns="http://www.w3.org/2000/svg" width="219" height="42" fill="none"><path fill="#fff" d="M200.65 33.0845 190.458 9.67224h6.824l6.961 16.79086 8.045-16.79086H219L203.135 41.9206h-6.824l4.339-8.8361Zm-24.818-4.8474c.602-.1372 1.183-.3538 1.729-.6441.526-.2805 1.016-.6259 1.457-1.0283.441-.4032.821-.8675 1.13-1.3785.324-.5368.575-1.1144.746-1.7175.185-.658.276-1.339.271-2.0226.006-.6911-.085-1.3796-.271-2.0451-.171-.6031-.422-1.1807-.746-1.7175-.311-.5131-.691-.9808-1.13-1.3899-.435-.4058-.926-.7481-1.457-1.0169-.549-.2763-1.13-.485-1.729-.6215-.63-.1444-1.275-.2164-1.921-.2146-.643-.0022-1.284.0698-1.91.2146-.592.1366-1.165.3453-1.706.6215-.529.2724-1.019.6144-1.458 1.0169-.444.4068-.828.8748-1.141 1.3899-.323.5356-.57 1.1137-.734 1.7175-.179.6668-.266 1.3548-.26 2.0451-.005.6829.082 1.3633.26 2.0226.164.6038.411 1.1819.734 1.7175.311.513.695.9775 1.141 1.3785.444.3991.933.7442 1.458 1.0283.537.2902 1.111.5068 1.706.6441.626.1451 1.267.2171 1.91.2147.646.002 1.291-.07 1.921-.2147ZM168.95 33.48c-1.046-.2663-2.053-.669-2.994-1.1978-1.833-1.031-3.347-2.5481-4.373-4.3841-.529-.9492-.931-1.9634-1.198-3.0169-.557-2.2637-.557-4.6289 0-6.8926.265-1.0503.668-2.0609 1.198-3.0056 1.031-1.8295 2.544-3.3418 4.373-4.3729.941-.5286 1.948-.93134 2.994-1.19769 1.119-.28379 2.27-.42428 3.424-.41808.623-.00141 1.246.03633 1.864.11299.569.07042 1.132.18373 1.684.33898.512.14519 1.014.32256 1.503.53107.458.19483.9.42533 1.322.68923.397.2485.768.5362 1.107.8588.318.3014.612.6262.882.9717V9.67224h6.485V33.2201h-6.485v-2.8248c-.415.5202-.889.9904-1.413 1.4011-.579.4545-1.213.8342-1.887 1.1299-.749.3292-1.534.5718-2.339.7232-.898.1699-1.809.2531-2.723.2485-1.154.0062-2.305-.1343-3.424-.418Zm-23.546-17.8417c.929.017 1.856-.0894 2.757-.3164.703-.1774 1.358-.5051 1.921-.9604.509-.4241.898-.9731 1.13-1.5932.253-.7026.376-1.4455.362-2.1921.014-.74298-.108-1.48225-.362-2.18078-.233-.61339-.622-1.15496-1.13-1.57061-.566-.44859-1.221-.77208-1.921-.94914-.901-.22674-1.828-.33313-2.757-.31639h-6.373V15.6383h6.373ZM132.32 0h13.717c2.155 0 4.023.263654 5.604.790961 1.582.527309 2.885 1.257999 3.91 2.192069 1.019.92616 1.805 2.07987 2.294 3.36721.513 1.35713.77 2.79772.757 4.24856.016 1.4474-.241 2.885-.757 4.2372-.497 1.2767-1.282 2.4213-2.294 3.3447-1.024.9418-2.328 1.6762-3.91 2.2033-1.581.5277-3.45.7914-5.604.791h-7.006v12.0451h-6.711V0Zm-28.821 9.67224h6.44v2.82486c.398-.5483.869-1.0388 1.401-1.4576.563-.4419 1.178-.8137 1.831-1.10737.719-.3216 1.474-.55677 2.248-.70056.861-.16182 1.735-.24127 2.611-.23728 1.363-.01953 2.719.21023 4 .67795 1.141.42046 2.175 1.08796 3.028 1.95476.857.8984 1.505 1.9748 1.898 3.1526.454 1.3542.675 2.7753.655 4.2033v14.2372h-6.44V20.6552c.015-.9185-.114-1.8337-.384-2.7118-.224-.725-.597-1.3949-1.096-1.9661-.48-.5307-1.081-.9377-1.752-1.1865-.76-.275-1.564-.409-2.373-.3954-.812-.0129-1.619.1211-2.384.3954-.675.2467-1.28.6539-1.763 1.1865-.499.5712-.872 1.2411-1.096 1.9661-.27.8781-.399 1.7933-.384 2.7118v12.5649h-6.44V9.67224ZM87.6497 28.1693c.6148-.1486 1.2102-.3686 1.774-.6554.5364-.2743 1.0279-.6286 1.4576-1.0509.4255-.4167.794-.8878 1.096-1.4011.3079-.5287.5363-1.0997.678-1.6949.1537-.644.2295-1.304.226-1.9661.004-.6583-.0719-1.3147-.226-1.9548-.285-1.1797-.9004-2.2536-1.774-3.096-.4354-.4186-.9258-.7759-1.4576-1.0621-.5591-.3-1.1557-.5242-1.774-.6667-.6708-.154-1.357-.2298-2.0452-.226-.6807-.003-1.3594.0728-2.0226.226-.6151.1412-1.2081.3654-1.7627.6667-.5272.2881-1.0136.6453-1.4463 1.0621-.4263.4104-.7882.8827-1.0734 1.4011-.2916.5326-.5191 1.0977-.678 1.6837-.1707.6412-.2544 1.3025-.2486 1.9661-.0039.6634.0797 1.3245.2486 1.9661.1546.5909.3824 1.1603.6779 1.6949.2889.516.6504.9878 1.0735 1.4011.427.4204.9145.7746 1.4463 1.0508.5593.2881 1.151.5081 1.7627.6554.6621.1608 1.3412.2405 2.0226.2373.6888.004 1.3756-.0757 2.0452-.2373Zm-5.8419 5.2993c-1.162-.2704-2.2883-.6762-3.3559-1.209-1.004-.5005-1.9354-1.1354-2.7683-1.887-.8072-.7303-1.5071-1.5709-2.0791-2.4971-.5798-.9428-1.0248-1.9621-1.322-3.0282-.6177-2.256-.6177-4.6366 0-6.8926.296-1.063.7411-2.0788 1.322-3.0169.5761-.9232 1.2756-1.7634 2.0791-2.4971.8307-.7576 1.7623-1.3965 2.7683-1.8984 1.0677-.5325 2.194-.9383 3.3559-1.20898 2.514-.5725 5.1245-.5725 7.6384 0 1.1555.26826 2.2746.67418 3.3333 1.20898 1.0016.5094 1.9323 1.1476 2.7684 1.8984.8159.7311 1.5269 1.5714 2.1129 2.4971.5875.9361 1.0365 1.9523 1.3333 3.0169.6178 2.256.6178 4.6366 0 6.8926-.298 1.0677-.747 2.0874-1.3333 3.0282-.5818.9287-1.2933 1.7696-2.1129 2.4971-.8383.7448-1.7687 1.379-2.7684 1.887-1.0552.5339-2.1704.9398-3.322 1.209-2.5177.5725-5.1319.5725-7.6497 0Zm-25.1322-5.2993c.6148-.1486 1.2102-.3686 1.774-.6554.5364-.2743 1.0279-.6286 1.4576-1.0509.4255-.4167.794-.8878 1.096-1.4011.3081-.5286.5366-1.0997.678-1.6949.1537-.644.2295-1.304.226-1.9661.0039-.6583-.0719-1.3147-.226-1.9548-.285-1.1797-.9004-2.2537-1.774-3.096-.4354-.4186-.9258-.7759-1.4576-1.0621-.5591-.3001-1.1557-.5242-1.774-.6667-.6708-.154-1.3571-.2298-2.0452-.226-.6807-.003-1.3594.0728-2.0226.226-.6151.1412-1.2081.3654-1.7627.6667-.5271.2882-1.0135.6454-1.4463 1.0621-.4263.4104-.7882.8827-1.0735 1.4011-.2912.5327-.5188 1.0978-.6779 1.6836-.1707.6413-.2544 1.3026-.2486 1.9661-.0039.6634.0797 1.3245.2486 1.9661.1549.5909.3826 1.1602.6779 1.6949.2889.516.6504.9879 1.0735 1.4011.4271.4204.9146.7745 1.4463 1.0509.5593.2881 1.1511.5081 1.7627.6554.6621.1608 1.3413.2404 2.0226.2373.6888.004 1.3756-.0757 2.0452-.2373Zm-5.8418 5.2993c-1.1621-.2704-2.2884-.6761-3.3559-1.2089-1.0041-.5006-1.9354-1.1354-2.7684-1.887-.8071-.7303-1.507-1.571-2.079-2.4971-.5798-.9428-1.0248-1.9621-1.3221-3.0282-.6177-2.256-.6177-4.6366 0-6.8926.296-1.063.7411-2.0788 1.3221-3.0169.5761-.9231 1.2756-1.7633 2.079-2.4971.8308-.7576 1.7624-1.3964 2.7684-1.8983 1.0676-.5326 2.1939-.93839 3.3559-1.20907 2.5139-.5725 5.1244-.5725 7.6384 0 1.1554.26821 2.2745.67417 3.3333 1.20907 1.0016.5092 1.9323 1.1474 2.7683 1.8983.816.731 1.5271 1.5713 2.113 2.4971.5875.9361 1.0366 1.9522 1.3333 3.0169.6177 2.256.6177 4.6366 0 6.8926-.2979 1.0678-.7469 2.0875-1.3333 3.0282-.5818.9288-1.2933 1.7697-2.113 2.4971-.8382.7449-1.7686 1.3791-2.7683 1.887-1.0553.5339-2.1705.9398-3.3221 1.2089-2.5177.5725-5.1319.5725-7.6496 0ZM0 0h6.77961L18.3727 17.7173 30.0111 0h6.7796v33.2201h-6.7118V10.4406l-9.6271 14.6891h-4.1129L6.71182 10.4406v22.7795H0V0Z"/></svg>