<svg xmlns="http://www.w3.org/2000/svg" width="219" height="48" fill="none"><path fill="#fff" d="M0 37.6353V1.91195h12.5047c3.1262 0 5.8008.48638 8.0239 1.45911 2.2578.97275 3.9771 2.38157 5.1581 4.22642 1.181 1.84487 1.7716 4.07542 1.7716 6.69182 0 1.8113-.3648 3.4717-1.0942 4.9812-.6947 1.5095-1.7021 2.8176-3.0219 3.9244-1.2852 1.0735-2.831 1.912-4.6372 2.5158-1.8063.5703-3.8209.8554-6.044.8554-1.181 0-2.4315-.1006-3.75139-.302v11.3712H0ZM8.90961 9.20755v9.81135c1.21569.1677 2.32729.2516 3.33459.2516 1.9452 0 3.4388-.4193 4.4808-1.2579 1.0768-.8721 1.6152-2.13 1.6152-3.7736 0-1.6101-.521-2.8512-1.563-3.7233-1.0074-.8721-2.4836-1.30815-4.4288-1.30815H8.90961ZM42.3456 38.39c-2.0841 0-4.0293-.3523-5.8356-1.0568-1.7714-.7042-3.3345-1.6938-4.6893-2.9685-1.32-1.2745-2.3445-2.7673-3.0741-4.478-.7294-1.7105-1.094-3.5721-1.094-5.5849 0-2.0125.3646-3.8742 1.094-5.5848.7642-1.7443 1.8064-3.2537 3.1264-4.5283 1.3545-1.3082 2.9351-2.3145 4.7412-3.0189 1.8411-.7379 3.821-1.1069 5.9397-1.1069 2.0842 0 4.0121.3522 5.7835 1.0566 1.8063.7044 3.3694 1.7107 4.6894 3.0189 1.3545 1.2746 2.3967 2.7673 3.1261 4.478.7294 1.7106 1.0942 3.5723 1.0942 5.5848 0 2.0126-.3821 3.8911-1.1464 5.6352-.7294 1.7107-1.7714 3.2033-3.1262 4.478-1.3198 1.2747-2.9003 2.281-4.7412 3.0188-1.8063.7045-3.7688 1.0568-5.8877 1.0568Zm.1043-7.3962c1.1462 0 2.1882-.2851 3.1261-.8554.9377-.6038 1.6673-1.4089 2.1882-2.4151.5559-1.0399.8337-2.1971.8337-3.4718 0-1.3081-.2778-2.4653-.8337-3.4715-.5209-1.0399-1.2505-1.845-2.1882-2.4152-.9379-.6038-1.9799-.9057-3.1261-.9057-1.1465 0-2.1884.3019-3.1264.9057-.9377.5702-1.6846 1.3753-2.2402 2.4152-.5211 1.0062-.7817 2.1634-.7817 3.4715 0 1.2747.2606 2.4319.7817 3.4718.5556 1.0062 1.3025 1.8113 2.2402 2.4151.938.5703 1.9799.8554 3.1264.8554ZM59.3796 37.6353V0h8.4928v37.6353h-8.4928ZM76.3544 48c-1.0073 0-1.9626-.1006-2.8656-.3018-.9032-.2014-1.7541-.52-2.553-.956l1.5108-6.2893c.3821.1676.8337.3187 1.3548.4527.5558.1342 1.0767.2014 1.563.2014.938 0 1.7541-.2851 2.4488-.8554.6948-.5368 1.2852-1.3921 1.7716-2.566l.2083-.453-11.0978-26.415h9.3264l5.7314 17.6101 5.106-17.6101h9.0139L86.827 39.5472c-1.1115 2.8846-2.5183 5.0147-4.2203 6.39C80.9048 47.3124 78.8206 48 76.3544 48Z"/><path fill="#fff" d="m106.263 37.6353-9.1699-26.8177h8.8579l4.376 16.956 5.002-16.956h7.503l5.002 17.0566 4.533-17.0566h8.545l-9.17 26.8177h-7.868l-4.898-16.805-4.949 16.805h-7.764ZM154.36 38.39c-2.084 0-4.03-.3523-5.836-1.0568-1.771-.7042-3.335-1.6938-4.689-2.9685-1.32-1.2745-2.345-2.7673-3.074-4.478-.73-1.7105-1.094-3.5721-1.094-5.5849 0-2.0125.364-3.8742 1.094-5.5848.764-1.7443 1.806-3.2537 3.126-4.5283 1.355-1.3082 2.935-2.3145 4.741-3.0189 1.841-.7379 3.821-1.1069 5.94-1.1069 2.084 0 4.012.3522 5.784 1.0566 1.806.7044 3.369 1.7107 4.689 3.0189 1.354 1.2746 2.396 2.7673 3.126 4.478.729 1.7106 1.094 3.5723 1.094 5.5848 0 2.0126-.382 3.8911-1.146 5.6352-.73 1.7107-1.772 3.2033-3.126 4.478-1.32 1.2747-2.901 2.281-4.742 3.0188-1.806.7045-3.769 1.0568-5.887 1.0568Zm.104-7.3962c1.146 0 2.188-.2851 3.126-.8554.938-.6038 1.667-1.4089 2.188-2.4151.556-1.0399.834-2.1971.834-3.4718 0-1.3081-.278-2.4653-.834-3.4715-.521-1.0399-1.25-1.845-2.188-2.4152-.938-.6038-1.98-.9057-3.126-.9057s-2.188.3019-3.126.9057c-.938.5702-1.685 1.3753-2.241 2.4152-.521 1.0062-.781 2.1634-.781 3.4715 0 1.2747.26 2.4319.781 3.4718.556 1.0062 1.303 1.8113 2.241 2.4151.938.5703 1.98.8554 3.126.8554ZM171.394 37.6353V10.8176h7.815l.313 4.2767c.66-1.4759 1.58-2.6163 2.761-3.4214 1.181-.805 2.553-1.2075 4.116-1.2075.452 0 .904.0335 1.355.1006.452.0671.851.1845 1.198.3522l-.833 8.151c-.382-.1342-.782-.218-1.199-.2516-.382-.0671-.781-.1006-1.198-.1006-1.945 0-3.404.5368-4.377 1.61-.972 1.0399-1.458 2.5661-1.458 4.5787v12.7296h-8.493ZM190.328 37.6353V0h8.492v21.5345l9.17-10.7169h9.64l-10.629 11.8743 11.879 14.9434h-10.474l-9.586-13.1826v13.1826h-8.492Z"/></svg>