<svg xmlns="http://www.w3.org/2000/svg" width="214" height="57" fill="none"><path fill="#fff" d="M18.1834 56.1451V42.0502c-.0005-.0303.016-.0582.0425-.0727l18.0983-10.4591c.0266-.0144.0429-.0424.0426-.0726v-4.0082c.0003-.0301-.0156-.058-.0417-.0731-.026-.0151-.0582-.0149-.0841.0005L18.3091 37.7266c-.0258.0153-.058.0155-.0841.0004-.0261-.015-.042-.043-.0416-.0732V33.644c0-.0302.0162-.058.0425-.0727l18.0983-10.4591c.0257-.0152.0418-.0427.0426-.0727v-4.0081c-.0007-.0296-.0169-.0568-.0426-.0716-.0256-.0149-.0572-.0153-.0832-.0011L18.3091 29.3203c-.0258.0154-.058.0156-.0841.0005-.0261-.0151-.042-.043-.0416-.0732v-4.0081c-.0005-.0302.016-.0582.0425-.0727l18.0983-10.4537c.0263-.0147.0426-.0426.0426-.0727v-4.063c-.0018-.0594-.033-.114-.0833-.1454L18.2666.022603c-.0514-.03013732-.1151-.03013732-.1665 0L14.6728 2.00273c-.0263.01474-.0426.04253-.0426.07268 0 .03014.0163.05793.0426.07268L32.6046 12.5096c.0254.0154.0409.043.0409.0727 0 .0297-.0155.0572-.0409.0727l-3.4272 1.9801c-.0526.0284-.1158.0284-.1683 0L10.994 4.22572c-.0548-.03167-.1223-.03167-.1772 0L7.40015 6.20407c-.02624.01473-.04251.04253-.04251.07268 0 .03014.01627.05794.04251.07268L25.3285 16.7127c.0263.0148.0425.0426.0425.0727 0 .0302-.0162.0579-.0425.0727l-3.4256 1.9801c-.0548.0317-.1223.0317-.1771 0L3.71958 8.42707c-.05481-.03171-.12232-.03171-.17712 0L.00000672 10.4799v35.2558c-.00038709.0302.01597578.0582.04251658.0726l3.4680467 2.005c.02589.0154.05808.0155.08415.0005.02608-.0151.04199-.043.04161-.0732v-35.013c-.00038-.0301.01553-.058.04162-.0731.02607-.0151.05825-.0149.08413.0005l3.46986 2.005c.02554.0151.04105.0428.0407.0726v35.2062c0 .0301.01627.0579.0425.0727l3.46806 2.0049c.0264.0153.059.0152.0853-.0002.0264-.0154.0425-.0437.0422-.0743V16.9308c-.0003-.0302.0156-.0581.0417-.0732.026-.0151.0582-.0149.0841.0005l3.468 2.0032c.0263.0147.0425.0425.0425.0727v35.2079c.0004.0295.0157.057.0408.0727l3.4786 2.0032c.0252.0111.0543.0091.0777-.0055.0234-.0145.0381-.0397.0393-.0672ZM54.7998 45.2436V11.1647c-.0011-.1719.0672-.3368.1893-.4569.122-.1202.2873-.1853.4579-.1808h10.0629c6.381 0 10.3439 3.7392 10.3439 10.0027 0 6.2634-4.4973 10.2516-10.4004 10.2516h-5.3728c-.1832-.0001-.333.1468-.3378.3312v14.1863c.001.1715-.0671.3362-.1887.4563-.1216.1201-.2865.1854-.4568.1812h-3.6538c-.3557-.0379-.6299-.3329-.6437-.6927Zm10.7101-18.6747c3.3726 0 5.2845-2.8256 5.2845-6.0392 0-3.3259-1.7421-5.8469-5.2845-5.8469h-5.4293c-.18.0056-.3244.1517-.329.333v11.2165c.0039.185.154.333.3378.333l5.4205.0036ZM96.9026 10.5268h3.6634c.171-.0045.337.0603.459.1799.123.1197.191.2839.19.455v25.6348c0 5.8215-4.763 9.3793-10.3437 9.3793-5.4684 0-10.2323-3.5862-10.2323-9.3793V11.1617c-.0006-.1708.0679-.3347.1897-.4543.1218-.1196.2873-.1847.4583-.1806h3.6085c.1709-.0045.3364.0603.4589.1799.1225.1197.191.2839.1897.455v25.5444c0 3.1713 2.4227 5.1851 5.2989 5.1851 2.8761 0 5.3556-2.0138 5.3556-5.1851V11.1794c.0443-.3598.342-.6352.704-.6526ZM113.853 27.8786c-3.504-2.3464-5.849-4.9659-5.849-8.9156 0-5.6578 4.775-8.914 10.202-8.914 5.114 0 9.602 2.8377 9.863 10.0189.006.3677-.283.6736-.651.6899h-3.362c-.344.0025-.63-.264-.651-.6066-.226-3.9018-2.571-5.7694-5.512-5.7694-2.827 0-4.946 1.6565-4.946 4.3062 0 2.2897 1.385 3.5329 5.003 6.0709l5.059 3.6429c3.504 2.5398 5.481 4.8312 5.481 8.4457 0 5.8528-4.833 9.329-10.514 9.329-5.369 0-9.601-2.9246-10.06-10.1004-.013-.1797.05-.3566.174-.488.123-.1313.296-.2052.477-.2038h3.419c.34.0078.62.2701.649.6084.312 4.0011 2.714 5.8527 5.541 5.8527 2.713 0 5.256-1.4632 5.256-4.8862 0-2.1282-.96-3.1728-3.734-5.0226l-5.845-4.058ZM151.967 45.0369v-14.817c-.003-.1839-.155-.331-.34-.331h-10.864c-.186 0-.337.1471-.341.331v14.817c.001.1705-.069.334-.192.453-.123.1191-.289.1836-.461.1788h-3.687c-.173.0048-.339-.0597-.462-.1788-.123-.119-.192-.2825-.192-.453V11.1607c-.001-.1708.068-.3348.191-.4542.124-.1195.29-.1842.463-.1797h3.687c.172-.0045.339.0602.462.1797.123.1194.192.2834.191.4542v14.1586c.005.1832.156.3292.341.3291h10.864c.185.0001.336-.1459.34-.3291V11.1607c0-.1708.068-.3348.191-.4542.124-.1195.29-.1842.463-.1797h3.687c.172-.0045.339.0602.462.1797.123.1194.192.2834.191.4542v33.9028c.001.1707-.068.3346-.191.4541s-.29.1842-.462.1796h-3.687c-.175-.0015-.343-.0719-.465-.1958-.123-.1239-.191-.291-.189-.4645ZM166.293 45.064V11.1612c-.002-.1707.066-.3344.188-.454.121-.1195.286-.1845.456-.1804h17.85c.17-.0045.335.0603.456.1798.122.1195.191.2836.189.4546v2.949c.002.171-.067.335-.189.4546-.121.1195-.286.1843-.456.1795h-13.219c-.183.0009-.332.1476-.337.3313v10.3899c.004.1841.154.3313.337.3312h9.094c.17-.0043.334.0607.456.1802.121.1195.19.2832.188.4539v2.9491c.002.1706-.067.3344-.188.4539-.122.1195-.286.1845-.456.1802h-9.094c-.183.0009-.332.1475-.337.3312v10.8044c.005.1837.154.3303.337.3312h13.219c.351-.0001.638.2816.645.6341v2.9491c-.008.3518-.295.6324-.645.6323h-17.85c-.171.0095-.338-.0535-.461-.1738-.122-.1202-.189-.2866-.183-.4585ZM208.52 45.2139l-5.448-14.8111c-.047-.1319-.172-.2203-.313-.2205h-5.052c-.185-.0001-.336.1466-.341.3308v14.7008c0 .1714-.069.3357-.192.4554-.123.1197-.29.1844-.462.1797h-3.689c-.172.0048-.338-.0601-.461-.1799-.123-.1197-.192-.284-.191-.4552V11.1641c-.001-.1714.067-.3359.191-.4559.122-.1201.289-.1853.461-.1812h10.106c6.188 0 10.445 3.9031 10.445 9.6899 0 3.8477-2.044 7.0586-5.791 8.9407-.039.0129-.07.0414-.086.0784-.015.0369-.015.0789.002.1155l6.159 15.6952c.08.2032.053.433-.073.6119-.125.179-.333.2832-.552.2777h-3.832c-.397-.0778-.728-.3493-.881-.7224Zm-5.789-19.0733c2.98 0 5.648-2.076 5.648-5.7298 0-3.2679-2.128-5.7317-5.648-5.7317h-5.024c-.171-.0009-.31.1347-.312.3042v10.7961c.004.1849.155.3327.341.3327l4.995.0285Z"/></svg>